<?xml version="1.0" encoding="UTF-8"?>
<svg version="1.1" xmlns="http://www.w3.org/2000/svg" width="1024" height="1024">
<path d="M0 0 C0.9468869 0.00202423 1.8937738 0.00404846 2.86935425 0.00613403 C3.86138351 0.00438171 4.85341278 0.00262939 5.87550354 0.00082397 C9.17921667 -0.00360212 12.48287683 -0.00065101 15.78659058 0.00271606 C18.08332835 0.00204255 20.38006606 0.00107212 22.67680359 -0.00018311 C27.5082466 -0.00166166 32.33967119 0.00049695 37.17111206 0.00515747 C43.33187194 0.01081334 49.49258785 0.00760329 55.65334606 0.00158501 C60.40718407 -0.002052 65.1610119 -0.00086697 69.91485023 0.0017128 C72.18359698 0.00237558 74.45234468 0.00157655 76.72109032 -0.00076675 C82.77596472 -0.00564144 88.82906408 0.01448966 94.88338852 0.10027313 C96.5092063 0.12277113 98.13512917 0.1390994 99.7610817 0.1473465 C101.74441032 0.1635512 103.72727162 0.22210756 105.70968628 0.28445435 C106.74970291 0.30935944 107.78971954 0.33426453 108.86125183 0.35992432 C111.43112183 1.13552856 111.43112183 1.13552856 113.54530334 3.93766785 C114.70671956 6.20378603 115.75487153 8.36118428 116.61862183 10.74880981 C118.60998886 15.81174473 121.30933211 20.38838417 124.05612183 25.07302856 C125.1028462 26.8861664 126.1483954 28.69998311 127.19284058 30.51443481 C127.99213989 31.89912964 127.99213989 31.89912964 128.80758667 33.3117981 C131.52043015 38.03010602 134.19452128 42.77018753 136.86862183 47.51052856 C140.13342155 53.29728616 143.39911026 59.08338426 146.68502808 64.85818481 C152.79306856 75.60466205 158.76987542 86.40984202 164.62643433 97.29544067 C168.60105552 104.66106022 172.71809495 111.93369976 176.90084839 119.18264771 C181.34620755 126.91654567 185.59743746 134.75009435 189.8041687 142.61599731 C193.53111124 149.56275028 197.45173382 156.31372055 201.43112183 163.13552856 C201.92612183 82.94552856 201.92612183 82.94552856 202.43112183 1.13552856 C206.64126098 0.29350073 210.003061 0.00987491 214.2492218 0.00854492 C214.92377114 0.00698493 215.59832048 0.00542494 216.2933107 0.00381768 C218.55077725 -0.00016459 220.80817628 0.00298781 223.06564331 0.00613403 C224.69036905 0.00477773 226.31509448 0.00299651 227.93981934 0.00082397 C232.37698193 -0.00375242 236.81412134 -0.00195225 241.25128436 0.00120306 C245.98498258 0.0037601 250.718679 0.00137676 255.45237732 -0.00018311 C263.48867131 -0.00200948 271.52495618 0.00039879 279.56124878 0.00515747 C287.62115085 0.00987784 295.68103433 0.01008094 303.74093628 0.00515747 C330.30462038 -0.0104147 356.86774435 0.02475403 383.43125439 0.12461662 C386.46336588 0.13564585 389.49547935 0.14554527 392.52759552 0.15519714 C404.50169703 0.19447428 416.47532021 0.25786682 428.44911385 0.35260391 C432.15974996 0.38132365 435.87026466 0.40139013 439.58099174 0.41335678 C475.00376423 0.53814972 509.02555914 4.27179715 536.43112183 29.13552856 C536.43112183 29.79552856 536.43112183 30.45552856 536.43112183 31.13552856 C537.0266687 31.40752075 537.62221558 31.67951294 538.23580933 31.95974731 C555.55351383 41.23488798 567.52075737 68.28682199 573.03610229 86.08816528 C582.15506858 117.3081199 579.53183751 150.1999806 564.43112183 179.13552856 C548.77029977 207.55841475 522.74388099 229.53483847 491.63424683 238.97146606 C462.57305152 247.23720965 431.31937517 245.74528916 401.43112183 244.13552856 C401.13036743 244.90920776 400.82961304 245.68288696 400.51974487 246.48001099 C399.339032 249.3601666 397.8967842 251.80953762 396.24362183 254.44802856 C395.90612915 254.98943481 395.56863647 255.53084106 395.22091675 256.08865356 C394.42824132 257.35884637 393.63356091 258.62778916 392.83737183 259.89578247 C391.22958535 262.45651739 389.62703582 265.02049091 388.02487183 267.58474731 C386.11007849 270.64912145 384.19497081 273.71329524 382.27853394 276.77664185 C376.49746613 286.0192088 370.75490804 295.28520804 365.02389526 304.55886841 C361.78816808 309.79336637 358.54774443 315.02495903 355.30783081 320.25686646 C352.58460195 324.65491999 349.86332337 329.05415725 347.14596558 333.45584106 C341.97060111 341.83470915 336.77207117 350.19615992 331.49362183 358.51052856 C325.18647448 368.45135844 319.08548342 378.51519828 312.98190308 388.58181763 C310.89223491 392.02292735 308.79075228 395.45662778 306.68112183 398.88552856 C305.7916687 400.33185669 305.7916687 400.33185669 304.88424683 401.80740356 C303.76363138 403.60279821 302.60509875 405.37456318 301.43112183 407.13552856 C298.5901175 407.42171582 295.96801602 407.513686 293.12594604 407.47610474 C292.26733978 407.47654282 291.40873352 407.4769809 290.52410889 407.47743225 C287.67778005 407.47533731 284.83203563 407.45197323 281.98580933 407.42849731 C280.01568931 407.42290387 278.04556513 407.41863258 276.07543945 407.41563416 C270.88362153 407.40416562 265.69205436 407.37468119 260.50033569 407.34152222 C255.2051635 407.31086457 249.90995089 407.29713804 244.61471558 407.28201294 C234.220074 407.24981339 223.82561874 407.19859283 213.43112183 407.13552856 C213.43112183 403.80175821 213.97998237 402.85271306 215.66940308 400.06521606 C216.39643433 398.85756592 216.39643433 398.85756592 217.13815308 397.6255188 C217.66795776 396.76257202 218.19776245 395.89962524 218.74362183 395.01052856 C219.2876062 394.11471069 219.83159058 393.21889282 220.39205933 392.29592896 C224.69557083 385.24593339 229.14834353 378.29983381 233.66549683 371.38552856 C241.88066404 358.80059156 249.76815333 346.00054175 257.72311401 333.2505188 C261.92512383 326.52356085 266.16400247 319.82134604 270.43112183 313.13552856 C277.20325102 302.52251877 283.879626 291.85115296 290.54000854 281.16775513 C293.66655604 276.15462321 296.79908649 271.14523298 299.93112183 266.13552856 C303.71782172 260.07789744 307.50373182 254.01977806 311.28659058 247.95974731 C319.96129049 234.06590732 328.67939458 220.20051004 337.45455933 206.36990356 C342.43080757 198.51872031 347.35818093 190.64446182 352.18112183 182.69802856 C364.36120922 162.67048487 364.36120922 162.67048487 367.43112183 161.13552856 C367.43112183 161.79552856 367.43112183 162.45552856 367.43112183 163.13552856 C378.60191919 163.05092286 389.77257689 162.9559618 400.94317436 162.84800148 C406.13086174 162.79818478 411.31853019 162.75185403 416.50631714 162.71365356 C421.51848495 162.67661529 426.53048851 162.63020632 431.5425148 162.57746506 C433.4489057 162.5590192 435.35533168 162.54387558 437.26177597 162.5321846 C459.45372857 162.39381565 459.45372857 162.39381565 478.79440308 152.16287231 C485.38272135 145.32640646 489.93939764 136.11555907 490.49362183 126.53787231 C490.18842658 114.8069302 487.18445663 105.03960031 479.18112183 96.26052856 C467.6699931 85.73390427 452.96164532 85.83640377 438.2194519 85.81668091 C436.61193344 85.80736499 435.00441975 85.79719389 433.39691162 85.78623962 C429.06506658 85.75911296 424.73325374 85.74384208 420.40134645 85.7308116 C415.86229939 85.71510459 411.32331736 85.68833879 406.78431702 85.66278076 C398.20341908 85.61612631 389.62250874 85.57931796 381.04154938 85.54610789 C371.26634923 85.5077919 361.4912146 85.45840677 351.71606982 85.40812373 C331.62113564 85.30500235 311.52615991 85.21567801 291.43112183 85.13552856 C291.44494872 85.80915939 291.45877562 86.48279022 291.47302151 87.17683411 C291.80648646 103.68321172 292.05355158 120.18850238 292.20830441 136.69747925 C292.28516204 144.68181455 292.3896314 152.6638817 292.56271362 160.64675903 C292.71376997 167.6171754 292.80934895 174.5859478 292.84244925 181.55795574 C292.86175729 185.23956523 292.90599669 188.91647881 293.01707268 192.59655762 C293.58755123 212.2680931 290.46509833 225.68964076 278.30267525 241.62800598 C275.41329147 245.499226 272.90190706 249.58906851 270.36862183 253.69802856 C269.40003595 255.23150772 268.43015379 256.76416957 267.45846558 258.29568481 C264.05717663 263.70657145 260.74392338 269.17017348 257.43112183 274.63552856 C252.22955246 283.21691297 246.933031 291.72960519 241.55612183 300.20193481 C227.28217163 322.69991865 213.29410152 345.3824617 199.43112183 368.13552856 C196.49511599 365.40595757 194.51735668 362.84576083 192.65377808 359.30349731 C192.14725708 358.35224976 191.64073608 357.4010022 191.11886597 356.42092896 C190.5825354 355.39862183 190.04620483 354.3763147 189.49362183 353.32302856 C188.32872958 351.13718617 187.16201709 348.952313 185.99362183 346.76834106 C185.40065308 345.65878052 184.80768433 344.54921997 184.19674683 343.40603638 C181.52931509 338.46509119 178.76930843 333.57876323 175.99362183 328.69802856 C174.91152717 326.79311666 173.82949656 324.88816838 172.74752808 322.98318481 C172.2049939 322.02815063 171.66245972 321.07311646 171.10348511 320.08914185 C168.19305565 314.94894104 165.31320365 309.79165975 162.43112183 304.63552856 C157.92778823 296.58390655 153.41009776 288.54070244 148.86862183 280.51052856 C148.33478882 279.56661255 147.80095581 278.62269653 147.25094604 277.650177 C144.58801306 272.94348528 141.92252375 268.23825039 139.25534058 263.53396606 C132.81291515 252.16358804 126.43150178 240.76102094 120.09225464 229.33279419 C113.57284423 217.58109605 107.0144792 205.85151481 100.43112183 194.13552856 C99.84492065 193.0921936 99.25871948 192.04885864 98.65475464 190.97390747 C96.91552403 187.88082766 95.17383641 184.78914656 93.43112183 181.69802856 C92.91533569 180.78118286 92.39954956 179.86433716 91.86813354 178.91970825 C88.92710543 173.7118571 85.91196874 168.55820031 82.80734253 163.44607544 C79.0700309 157.17147597 75.7143267 150.67882425 72.3119812 144.21878052 C64.86648567 130.09130637 57.05412937 116.18270261 49.11691284 102.32644653 C45.24423579 95.56521967 41.39281557 88.79223949 37.55612183 82.01052856 C37.03300415 81.08731812 36.50988647 80.16410767 35.97091675 79.21292114 C32.86345569 73.71556255 29.8173739 68.18812252 26.80172729 62.6399231 C25.05376207 59.44601014 23.2505896 56.2892727 21.43112183 53.13552856 C16.96429765 45.39303332 12.72857698 37.52704683 8.46627808 29.67068481 C3.25775969 20.07577354 -1.95672137 10.50229732 -7.56887817 1.13552856 C-5.60975207 -0.82359754 -2.60821374 0.00858979 0 0 Z " fill="#1BAAFE" transform="translate(224.56887817382813,315.8644714355469)"/>
<path d="M0 0 C29.37 0 58.74 0 89 0 C88.67 0.99 88.34 1.98 88 3 C58.96 3 29.92 3 0 3 C0 2.01 0 1.02 0 0 Z " fill="#25A5F6" transform="translate(438,720)"/>
<path d="M0 0 C0.33 0 0.66 0 1 0 C3.19539435 15.44616742 3.05148488 29.5405961 1 45 C0.67 45 0.34 45 0 45 C0 30.15 0 15.3 0 0 Z " fill="#28ADFA" transform="translate(800,416)"/>
<path d="M0 0 C1.11384064 -0.00374634 1.11384064 -0.00374634 2.25018311 -0.00756836 C4.39600194 -0.01349915 6.54167932 -0.01195483 8.6875 -0.0078125 C9.92886719 -0.00668457 11.17023438 -0.00555664 12.44921875 -0.00439453 C16.0298524 0.12608786 19.46512369 0.55381572 23 1.125 C23 1.455 23 1.785 23 2.125 C17.26090592 2.29597484 11.52163407 2.45607194 5.78198242 2.60717773 C3.83984722 2.65971103 1.89778257 2.71493918 -0.04418945 2.77319336 C-13.75439318 3.18197568 -27.3090335 2.97038258 -41 2.125 C-41 1.795 -41 1.465 -41 1.125 C-27.3311534 0.34551384 -13.6884139 0.01616496 0 0 Z " fill="#1CA0F8" transform="translate(499,315.875)"/>
<path d="M0 0 C23.43 0.33 46.86 0.66 71 1 C71 1.33 71 1.66 71 2 C35.855 2.495 35.855 2.495 0 3 C0 2.01 0 1.02 0 0 Z " fill="#1B9CF6" transform="translate(218,316)"/>
<path d="M0 0 C5.28 0.33 10.56 0.66 16 1 C16 1.33 16 1.66 16 2 C8.08 2.495 8.08 2.495 0 3 C0 2.01 0 1.02 0 0 Z " fill="#24A2F4" transform="translate(218,316)"/>
<path d="M0 0 C0.99 0.495 0.99 0.495 2 1 C1.67 1.66 1.34 2.32 1 3 C0.67 2.01 0.34 1.02 0 0 Z " fill="#2CAEFB" transform="translate(251,380)"/>
<path d="" fill="#28AFFE" transform="translate(0,0)"/>
<path d="" fill="#27AEFD" transform="translate(0,0)"/>
<path d="M0 0 C2 1 2 1 2 1 Z " fill="#2DB0FD" transform="translate(579,638)"/>
<path d="M0 0 C2 1 2 1 2 1 Z " fill="#2AAEFA" transform="translate(369,592)"/>
<path d="" fill="#2AAEFC" transform="translate(0,0)"/>
<path d="M0 0 C2 1 2 1 2 1 Z " fill="#2EB0FB" transform="translate(701,559)"/>
<path d="" fill="#28ADFB" transform="translate(0,0)"/>
<path d="" fill="#2BB0FC" transform="translate(0,0)"/>
<path d="M0 0 C2 1 2 1 2 1 Z " fill="#2CB1FD" transform="translate(603,477)"/>
<path d="" fill="#2AAEFC" transform="translate(0,0)"/>
<path d="M0 0 C2 1 2 1 2 1 Z " fill="#28ADFB" transform="translate(256,391)"/>
<path d="" fill="#666A6A" transform="translate(0,0)"/>
<path d="" fill="#3EAEE9" transform="translate(0,0)"/>
<path d="" fill="#30B2F8" transform="translate(0,0)"/>
<path d="" fill="#2EAEFA" transform="translate(0,0)"/>
<path d="" fill="#30B0F9" transform="translate(0,0)"/>
<path d="" fill="#2FAEF9" transform="translate(0,0)"/>
<path d="" fill="#2BAEFC" transform="translate(0,0)"/>
<path d="" fill="#2AAEFC" transform="translate(0,0)"/>
<path d="" fill="#28B4FE" transform="translate(0,0)"/>
<path d="" fill="#2DAFFA" transform="translate(0,0)"/>
<path d="" fill="#2EAFFA" transform="translate(0,0)"/>
<path d="" fill="#2BAEFA" transform="translate(0,0)"/>
<path d="" fill="#29B0FD" transform="translate(0,0)"/>
<path d="" fill="#2BB0FE" transform="translate(0,0)"/>
<path d="" fill="#2BAEFE" transform="translate(0,0)"/>
<path d="" fill="#29ADFC" transform="translate(0,0)"/>
<path d="" fill="#2BADFC" transform="translate(0,0)"/>
<path d="" fill="#29ADFC" transform="translate(0,0)"/>
<path d="" fill="#27AFFD" transform="translate(0,0)"/>
<path d="" fill="#2CAFFB" transform="translate(0,0)"/>
<path d="" fill="#27B0FF" transform="translate(0,0)"/>
<path d="" fill="#26B0FF" transform="translate(0,0)"/>
<path d="" fill="#2CAFFD" transform="translate(0,0)"/>
<path d="" fill="#28AFFF" transform="translate(0,0)"/>
<path d="" fill="#2AADFB" transform="translate(0,0)"/>
<path d="" fill="#2AACFB" transform="translate(0,0)"/>
<path d="" fill="#2CACFB" transform="translate(0,0)"/>
<path d="" fill="#2BACFC" transform="translate(0,0)"/>
<path d="" fill="#2AB0FE" transform="translate(0,0)"/>
<path d="" fill="#2AAFFD" transform="translate(0,0)"/>
<path d="" fill="#29B1FD" transform="translate(0,0)"/>
<path d="" fill="#2FAEF7" transform="translate(0,0)"/>
<path d="" fill="#2FAFF9" transform="translate(0,0)"/>
<path d="" fill="#2AADFA" transform="translate(0,0)"/>
<path d="" fill="#26AFFD" transform="translate(0,0)"/>
<path d="" fill="#29ADFC" transform="translate(0,0)"/>
<path d="" fill="#2EB0FB" transform="translate(0,0)"/>
<path d="" fill="#2CAEFA" transform="translate(0,0)"/>
<path d="" fill="#30B1FA" transform="translate(0,0)"/>
<path d="" fill="#29AFFE" transform="translate(0,0)"/>
<path d="" fill="#28AEFD" transform="translate(0,0)"/>
<path d="" fill="#29B0FD" transform="translate(0,0)"/>
<path d="" fill="#28B0FE" transform="translate(0,0)"/>
<path d="" fill="#2DAEFA" transform="translate(0,0)"/>
<path d="" fill="#28AFFD" transform="translate(0,0)"/>
<path d="" fill="#28B0FD" transform="translate(0,0)"/>
<path d="" fill="#2AB0FE" transform="translate(0,0)"/>
<path d="" fill="#28B0FD" transform="translate(0,0)"/>
<path d="" fill="#32B1F9" transform="translate(0,0)"/>
<path d="" fill="#2BB1FF" transform="translate(0,0)"/>
<path d="" fill="#2AAEFD" transform="translate(0,0)"/>
<path d="" fill="#29B0FE" transform="translate(0,0)"/>
<path d="" fill="#28AFFD" transform="translate(0,0)"/>
<path d="" fill="#2DB0FC" transform="translate(0,0)"/>
<path d="" fill="#2BB1FA" transform="translate(0,0)"/>
<path d="" fill="#27AEFE" transform="translate(0,0)"/>
<path d="" fill="#2EAEFB" transform="translate(0,0)"/>
<path d="" fill="#27B0FF" transform="translate(0,0)"/>
<path d="" fill="#26AEFF" transform="translate(0,0)"/>
<path d="" fill="#2DAFFB" transform="translate(0,0)"/>
<path d="" fill="#2CAFFB" transform="translate(0,0)"/>
<path d="" fill="#29B0FE" transform="translate(0,0)"/>
<path d="" fill="#28AEFF" transform="translate(0,0)"/>
<path d="" fill="#28AEFF" transform="translate(0,0)"/>
<path d="" fill="#28B0FD" transform="translate(0,0)"/>
<path d="" fill="#27B0FF" transform="translate(0,0)"/>
<path d="" fill="#28B1FD" transform="translate(0,0)"/>
<path d="" fill="#2CAEF9" transform="translate(0,0)"/>
<path d="" fill="#29AEFD" transform="translate(0,0)"/>
<path d="" fill="#2BAFFA" transform="translate(0,0)"/>
<path d="" fill="#2BAAF9" transform="translate(0,0)"/>
<path d="" fill="#29B3FF" transform="translate(0,0)"/>
<path d="" fill="#28AFFC" transform="translate(0,0)"/>
<path d="" fill="#2AB0FF" transform="translate(0,0)"/>
<path d="" fill="#2FB1FD" transform="translate(0,0)"/>
<path d="" fill="#30B0FB" transform="translate(0,0)"/>
<path d="" fill="#2FAFFA" transform="translate(0,0)"/>
<path d="" fill="#2CAEF9" transform="translate(0,0)"/>
<path d="" fill="#30ACFA" transform="translate(0,0)"/>
<path d="" fill="#30AFF8" transform="translate(0,0)"/>
<path d="" fill="#2EB0FC" transform="translate(0,0)"/>
<path d="" fill="#2DADF8" transform="translate(0,0)"/>
<path d="" fill="#2CAFFC" transform="translate(0,0)"/>
<path d="" fill="#2BAEFA" transform="translate(0,0)"/>
<path d="" fill="#2EAFF8" transform="translate(0,0)"/>
<path d="" fill="#2FADFA" transform="translate(0,0)"/>
<path d="" fill="#34AFF6" transform="translate(0,0)"/>
<path d="" fill="#33AEF7" transform="translate(0,0)"/>
<path d="" fill="#32AEF6" transform="translate(0,0)"/>
<path d="" fill="#2EAFFC" transform="translate(0,0)"/>
<path d="" fill="#38ADF1" transform="translate(0,0)"/>
<path d="" fill="#31ADF7" transform="translate(0,0)"/>
<path d="" fill="#2BAAF5" transform="translate(0,0)"/>
<path d="" fill="#40AAE1" transform="translate(0,0)"/>
<path d="" fill="#2FADF9" transform="translate(0,0)"/>
<path d="" fill="#2FADF9" transform="translate(0,0)"/>
<path d="" fill="#30ADF6" transform="translate(0,0)"/>
<path d="" fill="#33ACF5" transform="translate(0,0)"/>
<path d="" fill="#30ACF6" transform="translate(0,0)"/>
<path d="" fill="#424545" transform="translate(0,0)"/>
</svg>
